<svg width="900" height="101" viewBox="0 0 900 101" fill="none" xmlns="http://www.w3.org/2000/svg">
<path d="M0 95L21.5 96C43 97 86 99 128.8 97.2C171.7 95.3 214.3 89.7 257.2 87.8C300 86 343 88 385.8 86.2C428.7 84.3 471.3 78.7 514.2 78.5C557 78.3 600 83.7 642.8 86.8C685.7 90 728.3 91 771.2 93C814 95 857 98 878.5 99.5L900 101V0H878.5C857 0 814 0 771.2 0C728.3 0 685.7 0 642.8 0C600 0 557 0 514.2 0C471.3 0 428.7 0 385.8 0C343 0 300 0 257.2 0C214.3 0 171.7 0 128.8 0C86 0 43 0 21.5 0H0V95Z" fill="#FA679D"/>
<path d="M0 78L21.5 76.3C43 74.7 86 71.3 128.8 67.8C171.7 64.3 214.3 60.7 257.2 62.5C300 64.3 343 71.7 385.8 72C428.7 72.3 471.3 65.7 514.2 65.7C557 65.7 600 72.3 642.8 76.2C685.7 80 728.3 81 771.2 78.2C814 75.3 857 68.7 878.5 65.3L900 62V0H878.5C857 0 814 0 771.2 0C728.3 0 685.7 0 642.8 0C600 0 557 0 514.2 0C471.3 0 428.7 0 385.8 0C343 0 300 0 257.2 0C214.3 0 171.7 0 128.8 0C86 0 43 0 21.5 0H0V78Z" fill="#EE5DAC"/>
<path d="M0 49L21.5 49.7C43 50.3 86 51.7 128.8 54.2C171.7 56.7 214.3 60.3 257.2 59.7C300 59 343 54 385.8 53.8C428.7 53.7 471.3 58.3 514.2 60.8C557 63.3 600 63.7 642.8 62C685.7 60.3 728.3 56.7 771.2 52.8C814 49 857 45 878.5 43L900 41V0H878.5C857 0 814 0 771.2 0C728.3 0 685.7 0 642.8 0C600 0 557 0 514.2 0C471.3 0 428.7 0 385.8 0C343 0 300 0 257.2 0C214.3 0 171.7 0 128.8 0C86 0 43 0 21.5 0H0V49Z" fill="#DC58BD"/>
<path d="M0 37L21.5 38.2C43 39.3 86 41.7 128.8 42.2C171.7 42.7 214.3 41.3 257.2 38.5C300 35.7 343 31.3 385.8 30.7C428.7 30 471.3 33 514.2 34.3C557 35.7 600 35.3 642.8 37C685.7 38.7 728.3 42.3 771.2 40.7C814 39 857 32 878.5 28.5L900 25V0H878.5C857 0 814 0 771.2 0C728.3 0 685.7 0 642.8 0C600 0 557 0 514.2 0C471.3 0 428.7 0 385.8 0C343 0 300 0 257.2 0C214.3 0 171.7 0 128.8 0C86 0 43 0 21.5 0H0V37Z" fill="#C357CE"/>
<path d="M0 20L21.5 18.7C43 17.3 86 14.7 128.8 15.8C171.7 17 214.3 22 257.2 24.7C300 27.3 343 27.7 385.8 26.2C428.7 24.7 471.3 21.3 514.2 21.2C557 21 600 24 642.8 24.8C685.7 25.7 728.3 24.3 771.2 22.8C814 21.3 857 19.7 878.5 18.8L900 18V0H878.5C857 0 814 0 771.2 0C728.3 0 685.7 0 642.8 0C600 0 557 0 514.2 0C471.3 0 428.7 0 385.8 0C343 0 300 0 257.2 0C214.3 0 171.7 0 128.8 0C86 0 43 0 21.5 0H0V20Z" fill="#A05BDE"/>
</svg>
