<svg width="320" height="113" viewBox="0 0 320 113" fill="none" xmlns="http://www.w3.org/2000/svg">
<path d="M0 112.653L7.64444 107.683C15.2889 102.713 30.5778 92.7733 45.7956 91.6847C61.0489 90.5487 76.1956 98.3113 91.4489 100.015C106.667 101.767 121.956 97.5067 137.173 94.9033C152.427 92.3 167.573 91.3533 182.827 93.6253C198.044 95.9447 213.333 101.435 228.551 99.542C243.804 97.6487 258.951 88.3713 274.204 83.638C289.422 78.9047 304.711 78.7153 312.356 78.668L320 78.5733V0H312.356C304.711 0 289.422 0 274.204 0C258.951 0 243.804 0 228.551 0C213.333 0 198.044 0 182.827 0C167.573 0 152.427 0 137.173 0C121.956 0 106.667 0 91.4489 0C76.1956 0 61.0489 0 45.7956 0C30.5778 0 15.2889 0 7.64444 0H0V112.653Z" fill="#FA679D"/>
<path d="M0 69.58L7.64444 70.6213C15.2889 71.6153 30.5778 73.698 45.7956 73.6033C61.0489 73.5087 76.1956 71.3313 91.4489 69.6747C106.667 68.018 121.956 66.882 137.173 65.4147C152.427 63.9 167.573 62.0067 182.827 63.0953C198.044 64.2313 213.333 68.302 228.551 72.562C243.804 76.822 258.951 81.2713 274.204 83.07C289.422 84.8687 304.711 84.1113 312.356 83.6853L320 83.3067V0H312.356C304.711 0 289.422 0 274.204 0C258.951 0 243.804 0 228.551 0C213.333 0 198.044 0 182.827 0C167.573 0 152.427 0 137.173 0C121.956 0 106.667 0 91.4489 0C76.1956 0 61.0489 0 45.7956 0C30.5778 0 15.2889 0 7.64444 0H0V69.58Z" fill="#EE5DAC"/>
<path d="M0 58.22L7.64444 60.2553C15.2889 62.338 30.5778 66.4087 45.7956 67.8287C61.0489 69.2487 76.1956 68.018 91.4489 66.1247C106.667 64.2313 121.956 61.6753 137.173 59.3087C152.427 56.942 167.573 54.7647 182.827 54.812C198.044 54.9067 213.333 57.2733 228.551 57.8413C243.804 58.362 258.951 57.1313 274.204 55.2853C289.422 53.4867 304.711 51.12 312.356 49.9367L320 48.7533V0H312.356C304.711 0 289.422 0 274.204 0C258.951 0 243.804 0 228.551 0C213.333 0 198.044 0 182.827 0C167.573 0 152.427 0 137.173 0C121.956 0 106.667 0 91.4489 0C76.1956 0 61.0489 0 45.7956 0C30.5778 0 15.2889 0 7.64444 0H0V58.22Z" fill="#DC58BD"/>
<path d="M0 45.44L7.64444 43.2153C15.2889 41.038 30.5778 36.5887 45.7956 34.08C61.0489 31.5713 76.1956 30.9087 91.4489 32.3287C106.667 33.7487 121.956 37.2513 137.173 40.1387C152.427 43.0733 167.573 45.44 182.827 45.2033C198.044 44.9667 213.333 42.1267 228.551 40.8487C243.804 39.618 258.951 39.902 274.204 40.5647C289.422 41.18 304.711 42.1267 312.356 42.6L320 43.0733V0H312.356C304.711 0 289.422 0 274.204 0C258.951 0 243.804 0 228.551 0C213.333 0 198.044 0 182.827 0C167.573 0 152.427 0 137.173 0C121.956 0 106.667 0 91.4489 0C76.1956 0 61.0489 0 45.7956 0C30.5778 0 15.2889 0 7.64444 0H0V45.44Z" fill="#C357CE"/>
<path d="M0 18.9333L7.64444 20.9687C15.2889 23.0513 30.5778 27.122 45.7956 29.0153C61.0489 30.9087 76.1956 30.6247 91.4489 30.0567C106.667 29.4887 121.956 28.7313 137.173 26.128C152.427 23.5247 167.573 19.0753 182.827 19.17C198.044 19.2647 213.333 23.8087 228.551 24.2347C243.804 24.6133 258.951 20.8267 274.204 21.158C289.422 21.442 304.711 25.8913 312.356 28.0687L320 30.2933V0H312.356C304.711 0 289.422 0 274.204 0C258.951 0 243.804 0 228.551 0C213.333 0 198.044 0 182.827 0C167.573 0 152.427 0 137.173 0C121.956 0 106.667 0 91.4489 0C76.1956 0 61.0489 0 45.7956 0C30.5778 0 15.2889 0 7.64444 0H0V18.9333Z" fill="#A05BDE"/>
</svg>
