<svg width="320" height="88" viewBox="0 0 320 88" fill="none" xmlns="http://www.w3.org/2000/svg">
<path d="M0 0.261128H45.8667V5.22255H91.3778V0H137.244V8.35608H182.756V4.7003H228.622V3.91691H274.133V8.61721H320V1.56677V88H274.133H228.622H182.756H137.244H91.3778H45.8667H0V0.261128Z" fill="#DE5BCC"/>
<path d="M0 22.3675H45.8667V16.3534H91.3778V14H137.244H182.756V18.9682H228.622V16.0919H274.133V14H320V21.0601V88H274.133H228.622H182.756H137.244H91.3778H45.8667H0V22.3675Z" fill="#BB3DAB"/>
<path d="M0 29.8261H45.8667V33.7391H91.3778V29.0435H137.244V32.1739H182.756V28.7826H228.622V28H274.133V32.6957H320V35.5652V88H274.133H228.622H182.756H137.244H91.3778H45.8667H0V29.8261Z" fill="#991B8B"/>
<path d="M0 46.7045H45.8667V42H91.3778V47.4886H137.244V44.0909H182.756V42H228.622V44.875H274.133H320V45.9205V88H274.133H228.622H182.756H137.244H91.3778H45.8667H0V46.7045Z" fill="#77006C"/>
<path d="M0 53.8383H45.8667V50.1899H91.3778V51.1849H137.244V50.8533H182.756V53.1749H228.622V49.1949H274.133V55.1649H320V49.5266V88.3316H274.133H228.622H182.756H137.244H91.3778H45.8667H0V53.8383Z" fill="#55004E"/>
<path d="M0 65.7783H45.8667V66.11H91.3778V66.7733H137.244V70.4216H182.756V68.7633H228.622V69.4267H274.133V70.09H320V69.4267V88.3316H274.133H228.622H182.756H137.244H91.3778H45.8667H0V65.7783Z" fill="black"/>
</svg>
