<svg width="320" height="47" viewBox="0 0 320 47" fill="none" xmlns="http://www.w3.org/2000/svg">
<path d="M0 34.7561L10.6667 29.8215C21.3333 24.8498 42.6667 14.9806 64 12.6803C85.3333 10.38 106.667 15.7227 128 16.7615C149.333 17.8004 170.667 15.5245 192 9.885C213.333 4.24548 234.667 -0.923878 256 0.857023C277.333 2.63792 298.667 10.5284 309.333 16.3163L320 22.1414V46.9998H309.333C298.667 46.9998 277.333 46.9998 256 46.9998C234.667 46.9998 213.333 46.9998 192 46.9998C170.667 46.9998 149.333 46.9998 128 46.9998C106.667 46.9998 85.3333 46.9998 64 46.9998C42.6667 46.9998 21.3333 46.9998 10.6667 46.9998H0V34.7561Z" fill="#DE5BCC"/>
</svg>
