<svg width="320" height="41" viewBox="0 0 320 41" fill="none" xmlns="http://www.w3.org/2000/svg">
<path d="M0 18.3627L6.68444 20.1711C13.4044 21.9795 26.7733 25.5964 40.1067 29.1299C53.44 32.6355 66.7378 36.0854 80.0711 36.8088C93.4044 37.56 106.773 35.6124 120.107 31.0218C133.44 26.4311 146.738 19.1973 160.071 14.551C173.404 9.93253 186.773 7.87369 200.107 7.98498C213.44 8.06844 226.738 10.2942 240.071 16.6377C253.404 23.009 266.773 33.4701 280.107 37.6435C293.44 41.8168 306.738 39.7023 313.351 38.6172L320 37.56V0H313.351C306.738 0 293.44 0 280.107 0C266.773 0 253.404 0 240.071 0C226.738 0 213.44 0 200.107 0C186.773 0 173.404 0 160.071 0C146.738 0 133.44 0 120.107 0C106.773 0 93.4044 0 80.0711 0C66.7378 0 53.44 0 40.1067 0C26.7733 0 13.4044 0 6.68444 0H0V18.3627Z" fill="#FA679D"/>
</svg>
