<svg width="64" height="96" viewBox="0 0 64 96" fill="none" xmlns="http://www.w3.org/2000/svg">
<g clip-path="url(#clip0_3_33)">
<path d="M31.9608 95.1429L5.82439 87.5749L0 19.4355H64L58.1694 87.5643L31.9608 95.1429Z" fill="#264DE4"/>
<path d="M53.1778 83.2262L58.1604 25.0071H32V89.3502L53.1778 83.2262Z" fill="#2965F1"/>
<path d="M13.3523 50.2788L14.0704 58.6357H32V50.2788H13.3523Z" fill="#EBEBEB"/>
<path d="M11.9094 33.364L12.6377 41.7211H32V33.364H11.9094Z" fill="#EBEBEB"/>
<path d="M32 71.983L31.9649 71.9927L23.0417 69.4796L22.4713 62.8145H14.4284L15.5509 75.9362L31.9631 80.6884L32 80.6778V71.983Z" fill="#EBEBEB"/>
<path d="M15.062 0.918213H24.766V5.15096H19.12V9.38372H24.766V13.6165H15.062V0.918213Z" fill="white"/>
<path d="M26.7069 0.918213H36.4109V4.59887H30.7649V5.335H36.4109V13.8005H26.7069V9.93581H32.3529V9.19968H26.7069V0.918213Z" fill="white"/>
<path d="M38.3517 0.918213H48.0558V4.59887H42.4098V5.335H48.0558V13.8005H38.3517V9.93581H43.9977V9.19968H38.3517V0.918213Z" fill="white"/>
<path d="M50.5964 50.2788L52.0428 33.364H31.9723V41.7211H43.2622L42.5332 50.2788H31.9723V58.6357H41.8383L40.9083 69.4742L31.9723 71.9899V80.6843L48.3976 75.9361L48.5181 74.5242L50.4009 52.5229L50.5964 50.2788Z" fill="white"/>
</g>
<defs>
<clipPath id="clip0_3_33">
<rect width="64" height="94.2247" fill="white" transform="translate(0 0.918213)"/>
</clipPath>
</defs>
</svg>
