<svg width="64" height="96" viewBox="0 0 64 96" fill="none" xmlns="http://www.w3.org/2000/svg">
<g clip-path="url(#clip0_3_21)">
<path d="M63.7774 19.3888L57.9671 87.3454L31.8497 94.9049L5.80413 87.356L0 19.3888H63.7774Z" fill="#E44D26"/>
<path d="M31.8887 89.1268L52.9929 83.0182L57.9582 24.9462H31.8887V89.1268Z" fill="#F16529"/>
<path d="M20.5938 41.6181H31.8887V33.2821H11.868L12.0591 35.5185L14.0215 58.49H31.8887V50.1542H21.3234L20.5938 41.6181Z" fill="#EBEBEB"/>
<path d="M22.3931 62.6581H14.3782L15.4968 75.7466L31.852 80.4869L31.8887 80.4763V71.8034L31.8537 71.8132L22.9616 69.3064L22.3931 62.6581Z" fill="#EBEBEB"/>
<path d="M5.93389 0.918213H9.99138V5.10356H13.703V0.918213H17.7607V13.5925H13.7032V9.34838H9.99156V13.5925H5.93407V0.918213H5.93389Z" fill="white"/>
<path d="M23.0964 5.12118H19.5244V0.918213H30.7279V5.12118H27.1543V13.5925H23.0966V5.12118H23.0964Z" fill="white"/>
<path d="M32.506 0.918213H36.7369L39.3394 5.37156L41.9393 0.918213H46.1718V13.5925H42.131V7.31041L39.3394 11.8168H39.2696L36.4761 7.31041V13.5925H32.506V0.918213Z" fill="white"/>
<path d="M48.1911 0.918213H52.2498V9.40308H57.9559V13.5925H48.1911V0.918213Z" fill="white"/>
<path d="M31.8611 58.49H41.6928L40.7661 69.301L31.8611 71.8104V80.4828L48.2293 75.7466L48.3494 74.3383L50.2256 52.3926L50.4204 50.1542H31.8611V58.49Z" fill="white"/>
<path d="M31.8611 41.5977V41.6181H51.1469L51.3071 39.7444L51.6709 35.5185L51.8618 33.2821H31.8611V41.5977Z" fill="white"/>
</g>
<defs>
<clipPath id="clip0_3_21">
<rect width="64" height="94.2247" fill="white" transform="translate(0 0.918213)"/>
</clipPath>
</defs>
</svg>
