<svg width="67" height="68" viewBox="0 0 67 68" fill="none" xmlns="http://www.w3.org/2000/svg">
<g clip-path="url(#clip0_3_44)">
<path d="M0 0.212402H67V67.3726H0V0.212402Z" fill="#F7DF1E"/>
<path d="M17.6167 56.3363L22.7441 53.226C23.7332 54.984 24.633 56.4714 26.7914 56.4714C28.8603 56.4714 30.1647 55.6601 30.1647 52.5047V31.0454H36.461V52.5939C36.461 59.1308 32.6383 62.1062 27.0613 62.1062C22.0245 62.1062 19.1007 59.4914 17.6166 56.3358" fill="black"/>
<path d="M39.8809 55.66L45.0076 52.6846C46.3572 54.8939 48.1112 56.5167 51.2143 56.5167C53.8231 56.5167 55.4867 55.2092 55.4867 53.4059C55.4867 51.242 53.7778 50.4755 50.8994 49.2136L49.3257 48.5369C44.783 46.5988 41.7696 44.1644 41.7696 39.0249C41.7696 34.2913 45.3675 30.6846 50.9895 30.6846C54.9923 30.6846 57.8707 32.0822 59.9392 35.7339L55.037 38.8895C53.9575 36.9511 52.7885 36.1849 50.9896 36.1849C49.1457 36.1849 47.9762 37.357 47.9762 38.8895C47.9762 40.783 49.1457 41.5496 51.8438 42.7218L53.4178 43.398C58.7698 45.6973 61.7832 48.0413 61.7832 53.3157C61.7832 58.9964 57.3308 62.1068 51.3493 62.1068C45.5027 62.1068 41.7247 59.3118 39.881 55.66" fill="black"/>
</g>
<defs>
<clipPath id="clip0_3_44">
<rect width="67" height="67.1602" fill="white" transform="translate(0 0.212402)"/>
</clipPath>
</defs>
</svg>
