<svg width="40" height="40" viewBox="0 0 40 40" fill="none" xmlns="http://www.w3.org/2000/svg">
<path d="M35.8333 12.5L4.16667 12.5C3.25 12.5 2.5 11.75 2.5 10.8333L2.5 9.16667C2.5 8.25 3.25 7.5 4.16667 7.5L35.8333 7.5C36.75 7.5 37.5 8.25 37.5 9.16667L37.5 10.8333C37.5 11.75 36.75 12.5 35.8333 12.5Z" fill="url(#paint0_linear_2_14)"/>
<path d="M35.8333 22.5L4.16667 22.5C3.25 22.5 2.5 21.75 2.5 20.8333L2.5 19.1667C2.5 18.25 3.25 17.5 4.16667 17.5L35.8333 17.5C36.75 17.5 37.5 18.25 37.5 19.1667L37.5 20.8333C37.5 21.75 36.75 22.5 35.8333 22.5Z" fill="url(#paint1_linear_2_14)"/>
<path d="M35.8333 32.5L4.16667 32.5C3.25 32.5 2.5 31.75 2.5 30.8333L2.5 29.1667C2.5 28.25 3.25 27.5 4.16667 27.5L35.8333 27.5C36.75 27.5 37.5 28.25 37.5 29.1667L37.5 30.8333C37.5 31.75 36.75 32.5 35.8333 32.5Z" fill="url(#paint2_linear_2_14)"/>
<defs>
<linearGradient id="paint0_linear_2_14" x1="10.055" y1="0.0549994" x2="29.0758" y2="19.0758" gradientUnits="userSpaceOnUse">
<stop offset="0.237" stop-color="#A05BDE"/>
<stop offset="0.85" stop-color="#FA679D"/>
</linearGradient>
<linearGradient id="paint1_linear_2_14" x1="10.055" y1="10.055" x2="29.0758" y2="29.0758" gradientUnits="userSpaceOnUse">
<stop offset="0.237" stop-color="#A05BDE"/>
<stop offset="0.85" stop-color="#FA679D"/>
</linearGradient>
<linearGradient id="paint2_linear_2_14" x1="10.055" y1="20.055" x2="29.0758" y2="39.0758" gradientUnits="userSpaceOnUse">
<stop offset="0.237" stop-color="#A05BDE"/>
<stop offset="0.85" stop-color="#FA679D"/>
</linearGradient>
</defs>
</svg>
